<svg id="logo" xmlns="http://www.w3.org/2000/svg" width="150.114" height="148.494" viewBox="0 0 150.114 148.494">
  <path id="Path_111" data-name="Path 111" d="M428.146.5V49.479l-4.691-2.346V.5h-4.691V47.411l-2.346,1.759-2.346-1.759V.5h-4.691V47.134l-4.691,2.346V.5H400V53.955l16.419,26,16.419-26V.5ZM416.419,71.164l-4.633-7.334h9.265Zm7.594-12.025H408.824l-3.111-4.926,5.779-2.883,4.926,3.7,4.926-3.7,5.779,2.883Zm0,0" transform="translate(-282.723 -0.5)" fill="#fff"/>
  <path id="Path_112" data-name="Path 112" d="M205.963,176.5l-8.209,32.838h34.155L223.7,176.5Zm-2.2,28.146,5.864-23.455h10.411l5.864,23.455Zm0,0" transform="translate(-139.774 -124.898)" fill="#fff"/>
  <path id="Path_113" data-name="Path 113" d="M91.476,30.623V14.573h9.382V9.882H91.476V.5H86.785V9.882H63.33V.5H58.639V9.882H49.256v4.691h9.382v16.05L51.672,52.1H18.765V42.719H14.074V52.1H0v4.691H14.074V80.248H0v4.691H14.074v9.382h4.691V84.939H41.021L25.8,131.85H14.074v4.691H24.286l-3.568,11,4.456,1.45,4.044-12.453H43.8l-3.166,11.083,4.512,1.29,3.534-12.372h12.3V131.85H50.022l8.04-28.146H92.054l8.04,28.146H89.131v4.691h12.3l3.534,12.372,4.512-1.29-3.166-11.083H120.9l4.039,12.453,4.456-1.45-3.563-11h10.212V131.85H124.314ZM63.33,14.573H86.785V28.646H63.33ZM18.765,80.248V56.793H50.15L42.544,80.248Zm26.376,51.6h-14.4l3.8-11.728H48.491Zm55.141-16.419L95.59,99.012H54.525l-4.691,16.419H36.065L62.689,33.337H87.425l26.624,82.094Zm4.691,16.419-3.351-11.728h13.948l3.818,11.728Zm0,0" transform="translate(0 -0.5)" fill="#fff"/>
</svg>
