<svg id="marketing" xmlns="http://www.w3.org/2000/svg" width="140.734" height="143.078" viewBox="0 0 140.734 143.078">
  <path id="Path_117" data-name="Path 117" d="M84.095,83.6H79.4V60.616a2.346,2.346,0,0,0-4.691,0V83.6H13.728V36.691H33.243a2.346,2.346,0,1,0,0-4.691H11.382a2.346,2.346,0,0,0-2.346,2.346V83.6H4.346A2.346,2.346,0,0,0,2,85.947v4.691a11.728,11.728,0,0,0,11.728,11.728H74.712A11.728,11.728,0,0,0,86.44,90.638V85.947A2.346,2.346,0,0,0,84.095,83.6Zm-2.346,7.037a7.037,7.037,0,0,1-7.037,7.037H70.021V95.329a2.346,2.346,0,0,0-4.691,0v2.346H23.11V95.329a2.346,2.346,0,0,0-4.691,0v2.346H13.728a7.037,7.037,0,0,1-7.037-7.037V88.293H81.749Z" transform="translate(-2 40.712)" fill="#fff"/>
  <path id="Path_118" data-name="Path 118" d="M60.728,10.691h4.691a2.346,2.346,0,1,0,0-4.691H60.728a7.037,7.037,0,0,0-7.037,7.037v2.346H51.346a2.346,2.346,0,1,0,0,4.691h2.346V27.11a2.346,2.346,0,0,0,4.691,0V20.073h2.346a2.346,2.346,0,0,0,0-4.691H58.382V13.037A2.346,2.346,0,0,1,60.728,10.691Z" transform="translate(61.241 5.728)" fill="#fff"/>
  <path id="Path_119" data-name="Path 119" d="M79.183,2H51.037A7.037,7.037,0,0,0,44,9.037v4.691a2.346,2.346,0,0,0,4.691,0V9.037a2.346,2.346,0,0,1,2.346-2.346H79.183a2.346,2.346,0,0,1,2.346,2.346V37.183a2.346,2.346,0,0,1-2.346,2.346H51.037a2.346,2.346,0,0,1-2.346-2.346V23.11a2.346,2.346,0,0,0-4.691,0V37.183a7.037,7.037,0,0,0,7.037,7.037H79.183a7.037,7.037,0,0,0,7.037-7.037V9.037A7.037,7.037,0,0,0,79.183,2Z" transform="translate(54.513 0.346)" fill="#fff"/>
  <path id="Path_120" data-name="Path 120" d="M49,47.382A9.382,9.382,0,1,0,58.382,38,9.382,9.382,0,0,0,49,47.382Zm14.073,0a4.691,4.691,0,1,1-4.691-4.691A4.691,4.691,0,0,1,63.073,47.382Z" transform="translate(61.241 48.785)" fill="#fff"/>
  <path id="Path_121" data-name="Path 121" d="M79.183,33H51.037A7.037,7.037,0,0,0,44,40.037V68.183a7.037,7.037,0,0,0,7.037,7.037H79.183a7.037,7.037,0,0,0,7.037-7.037V63.492a2.346,2.346,0,0,0-4.691,0v4.691a2.346,2.346,0,0,1-2.346,2.346H51.037a2.346,2.346,0,0,1-2.346-2.346V40.037a2.346,2.346,0,0,1,2.346-2.346H79.183a2.346,2.346,0,0,1,2.346,2.346V54.11a2.346,2.346,0,0,0,4.691,0V40.037A7.037,7.037,0,0,0,79.183,33Z" transform="translate(54.513 42.057)" fill="#fff"/>
  <path id="Path_122" data-name="Path 122" d="M25.1,24.408a2.333,2.333,0,0,0,2.3.094l14.073-7.037a2.346,2.346,0,0,0,0-4.175L27.4,6.254A2.346,2.346,0,0,0,24,8.341V22.415A2.346,2.346,0,0,0,25.1,24.408Zm3.589-12.267,6.474,3.237-6.474,3.237Z" transform="translate(27.602 5.732)" fill="#fff"/>
  <path id="Path_123" data-name="Path 123" d="M39.11,43.22A21.11,21.11,0,1,0,18,22.11,21.11,21.11,0,0,0,39.11,43.22Zm0-37.529A16.419,16.419,0,1,1,22.691,22.11,16.419,16.419,0,0,1,39.11,5.691Z" transform="translate(19.529 -1)" fill="#fff"/>
  <path id="Path_124" data-name="Path 124" d="M38.346,31.073a2.345,2.345,0,0,0,1.876-.938l7.037-9.382a2.346,2.346,0,1,0-3.753-2.815L36.469,27.32a2.346,2.346,0,0,0,1.876,3.753Z" transform="translate(43.749 20.528)" fill="#fff"/>
  <path id="Path_125" data-name="Path 125" d="M39.469,32.79a2.346,2.346,0,0,0,3.284.469l9.382-7.037a2.346,2.346,0,0,0-2.815-3.753l-9.382,7.037a2.346,2.346,0,0,0-.469,3.284Z" transform="translate(47.786 27.256)" fill="#fff"/>
  <path id="Path_126" data-name="Path 126" d="M58.56,29.908a2.346,2.346,0,0,0-2.815-1.876L44.018,30.377a2.357,2.357,0,1,0,.469,4.691h.469l11.728-2.346a2.346,2.346,0,0,0,1.876-2.815Z" transform="translate(51.681 35.298)" fill="#fff"/>
  <path id="Path_127" data-name="Path 127" d="M4.346,53.22H32.492a2.346,2.346,0,0,0,2.346-2.346V13.346A2.346,2.346,0,0,0,32.492,11H4.346A2.346,2.346,0,0,0,2,13.346V50.874A2.346,2.346,0,0,0,4.346,53.22ZM6.691,15.691H30.147V48.529H6.691Z" transform="translate(-2 12.455)" fill="#fff"/>
  <path id="Path_128" data-name="Path 128" d="M15.037,15H10.346a2.346,2.346,0,1,0,0,4.691h4.691a2.346,2.346,0,1,0,0-4.691Z" transform="translate(6.073 17.837)" fill="#fff"/>
  <path id="Path_129" data-name="Path 129" d="M17.728,19H8.346a2.346,2.346,0,1,0,0,4.691h9.382a2.346,2.346,0,1,0,0-4.691Z" transform="translate(3.382 23.22)" fill="#fff"/>
  <path id="Path_130" data-name="Path 130" d="M17.728,23H8.346a2.346,2.346,0,1,0,0,4.691h9.382a2.346,2.346,0,1,0,0-4.691Z" transform="translate(3.382 28.602)" fill="#fff"/>
  <path id="Path_131" data-name="Path 131" d="M72.566,36.366a2.354,2.354,0,0,0-4.081,2.346l10.344,17.9L41.3,70.681h-.352l-6.1,3.518-4.058,2.346a4.684,4.684,0,0,1-6.4-1.712L19.7,66.717a4.691,4.691,0,0,1,1.759-6.192l8.116-4.691L35.436,65.99a2.354,2.354,0,1,0,4.081-2.346L33.466,53.183,62.9,28.907l.962,1.665a2.354,2.354,0,0,0,4.081-2.346L65.6,24.169a2.377,2.377,0,0,0-3.542-.633L29.22,50.6l-9.992,5.77A9.382,9.382,0,0,0,14.912,67l-2.346,1.337a7.031,7.031,0,0,0,3.518,13.135,7.178,7.178,0,0,0,3.518-.938L21.949,79.2a9.1,9.1,0,0,0,4.1,2.439,8.889,8.889,0,0,0,2.463.328A9.242,9.242,0,0,0,33.207,80.7l2.041-1.173,4.691,8.139a7.03,7.03,0,1,0,12.173-7.037l-4.269-7.435L83.027,59.985a2.352,2.352,0,0,0,1.22-3.354Zm-55.4,40.085a2.343,2.343,0,1,1-2.346-4.058l2.041-1.173L19.2,75.278Zm30.868,6.568a2.344,2.344,0,0,1-4.058,2.346l-4.691-8.139L43.176,75h.188Z" transform="translate(7.465 28.605)" fill="#fff"/>
</svg>
